<svg xmlns="http://www.w3.org/2000/svg" viewBox="0 0 960 600" role="img" aria-labelledby="title-growth desc-growth">
<title id="title-growth">Preferential Attachment vs Uniform Growth</title>
<desc id="desc-growth">Degree distribution comparison showing preferential attachment power law tail versus exponential uniform growth.</desc>
<rect width="960" height="600" fill="#f6f1e7"/>
<g font-family="Arial, sans-serif" fill="#232927">
<text x="40" y="38" font-size="24" font-weight="700">Preferential attachment vs uniform growth</text>
<text x="40" y="65" font-size="13" fill="#586866">Network growth to N = 303: rich-get-richer hub emergence vs uniform exponential tail</text>
<path d="M88.00,92 V490" stroke="#d5d9cf"/><text x="88.00" y="514" text-anchor="middle" font-size="12">1</text>
<path d="M207.88,92 V490" stroke="#d5d9cf"/><text x="207.88" y="514" text-anchor="middle" font-size="12">2</text>
<path d="M366.35,92 V490" stroke="#d5d9cf"/><text x="366.35" y="514" text-anchor="middle" font-size="12">5</text>
<path d="M486.23,92 V490" stroke="#d5d9cf"/><text x="486.23" y="514" text-anchor="middle" font-size="12">10</text>
<path d="M606.11,92 V490" stroke="#d5d9cf"/><text x="606.11" y="514" text-anchor="middle" font-size="12">20</text>
<path d="M764.59,92 V490" stroke="#d5d9cf"/><text x="764.59" y="514" text-anchor="middle" font-size="12">50</text>
<path d="M884.47,92 V490" stroke="#d5d9cf"/><text x="884.47" y="514" text-anchor="middle" font-size="12">100</text>
<path d="M88,455.00 H916" stroke="#d5d9cf"/><text x="76" y="459.00" text-anchor="end" font-size="12">0.005</text>
<path d="M88,407.51 H916" stroke="#d5d9cf"/><text x="76" y="411.51" text-anchor="end" font-size="12">0.01</text>
<path d="M88,360.02 H916" stroke="#d5d9cf"/><text x="76" y="364.02" text-anchor="end" font-size="12">0.02</text>
<path d="M88,297.25 H916" stroke="#d5d9cf"/><text x="76" y="301.25" text-anchor="end" font-size="12">0.05</text>
<path d="M88,249.76 H916" stroke="#d5d9cf"/><text x="76" y="253.76" text-anchor="end" font-size="12">0.1</text>
<path d="M88,202.27 H916" stroke="#d5d9cf"/><text x="76" y="206.27" text-anchor="end" font-size="12">0.2</text>
<path d="M88,139.49 H916" stroke="#d5d9cf"/><text x="76" y="143.49" text-anchor="end" font-size="12">0.5</text>
<path d="M88,92.00 H916" stroke="#d5d9cf"/><text x="76" y="96.00" text-anchor="end" font-size="12">1.0</text>
<text x="502" y="545" text-anchor="middle" font-size="12" fill="#586866" font-family="SFMono-Regular, Consolas, monospace">DEGREE k</text>
<text x="24" y="291" text-anchor="middle" font-size="12" fill="#586866" font-family="SFMono-Regular, Consolas, monospace" transform="rotate(-90 24 291)">P(K ≥ k)</text>
<path d="M88.00,92.00 L207.88,92.00 L327.76,156.11 L447.64,220.22 L567.52,284.33 L687.40,348.44 L807.28,412.55 L894.55,459.22" fill="none" stroke="#dc512f" stroke-width="2.8"/>
<circle cx="88.00" cy="92.00" r="4.5" fill="#dc512f"/>
<circle cx="207.88" cy="92.00" r="4.5" fill="#dc512f"/>
<circle cx="327.76" cy="156.11" r="4.5" fill="#dc512f"/>
<circle cx="447.64" cy="220.22" r="4.5" fill="#dc512f"/>
<circle cx="567.52" cy="284.33" r="4.5" fill="#dc512f"/>
<circle cx="687.40" cy="348.44" r="4.5" fill="#dc512f"/>
<circle cx="807.28" cy="412.55" r="4.5" fill="#dc512f"/>
<circle cx="894.55" cy="459.22" r="4.5" fill="#dc512f"/>
<path d="M88.00,92.00 L207.88,111.18 L278.01,130.37 L327.76,149.55 L366.35,168.73 L397.89,187.92 L424.55,207.10 L447.64,226.28 L468.01,245.47 L486.23,264.65 L502.72,283.84 L517.77,303.02 L531.61,322.20 L544.43,341.39 L556.36,360.57 L567.52,379.75 L578.01,398.94 L587.89,418.12 L597.24,437.30 L606.11,456.49 L614.55,475.67" fill="none" stroke="#2849c7" stroke-width="2.5" stroke-dasharray="5 3"/>
<circle cx="88.00" cy="92.00" r="4" fill="#2849c7"/>
<circle cx="207.88" cy="111.18" r="4" fill="#2849c7"/>
<circle cx="278.01" cy="130.37" r="4" fill="#2849c7"/>
<circle cx="327.76" cy="149.55" r="4" fill="#2849c7"/>
<circle cx="366.35" cy="168.73" r="4" fill="#2849c7"/>
<circle cx="397.89" cy="187.92" r="4" fill="#2849c7"/>
<circle cx="424.55" cy="207.10" r="4" fill="#2849c7"/>
<circle cx="447.64" cy="226.28" r="4" fill="#2849c7"/>
<circle cx="468.01" cy="245.47" r="4" fill="#2849c7"/>
<circle cx="486.23" cy="264.65" r="4" fill="#2849c7"/>
<circle cx="502.72" cy="283.84" r="4" fill="#2849c7"/>
<circle cx="517.77" cy="303.02" r="4" fill="#2849c7"/>
<circle cx="531.61" cy="322.20" r="4" fill="#2849c7"/>
<circle cx="544.43" cy="341.39" r="4" fill="#2849c7"/>
<circle cx="556.36" cy="360.57" r="4" fill="#2849c7"/>
<circle cx="567.52" cy="379.75" r="4" fill="#2849c7"/>
<circle cx="578.01" cy="398.94" r="4" fill="#2849c7"/>
<circle cx="587.89" cy="418.12" r="4" fill="#2849c7"/>
<circle cx="597.24" cy="437.30" r="4" fill="#2849c7"/>
<circle cx="606.11" cy="456.49" r="4" fill="#2849c7"/>
<circle cx="614.55" cy="475.67" r="4" fill="#2849c7"/>
<text x="702.90" y="332.24" font-size="11" font-family="SFMono-Regular, Consolas, monospace" fill="#dc512f" font-weight="bold">Preferential Attachment (Hubs reach k = 106)</text>
<text x="517.77" y="422.80" font-size="11" font-family="SFMono-Regular, Consolas, monospace" fill="#2849c7" font-weight="bold">Uniform Growth (Dies at k ≈ 20)</text>
<circle cx="680" cy="37" r="5" fill="#dc512f"/><text x="692" y="42" font-size="12">Preferential Attachment (BA)</text>
<line x1="680" y1="58" x2="700" y2="58" stroke="#2849c7" stroke-width="2.5" stroke-dasharray="5 3"/><text x="706" y="63" font-size="12">Uniform Growth (No Hubs)</text>
</g></svg>
